<svg width="50" height="50" viewBox="0 0 50 50" fill="none" xmlns="http://www.w3.org/2000/svg">
<circle cx="25" cy="25" r="23" stroke="black" stroke-width="4"/>
<path d="M27.4142 27.5858L26 26.1716L23.1716 29L24.5858 30.4142L27.4142 27.5858ZM31.6569 37.4853C32.4379 38.2663 33.7042 38.2663 34.4853 37.4853C35.2663 36.7042 35.2663 35.4379 34.4853 34.6569L31.6569 37.4853ZM24.5858 30.4142L31.6569 37.4853L34.4853 34.6569L27.4142 27.5858L24.5858 30.4142Z" fill="black"/>
<path d="M23 27V29H27V27H23ZM27 12C27 10.8954 26.1046 10 25 10C23.8954 10 23 10.8954 23 12H27ZM27 27V12H23V27H27Z" fill="black"/>
</svg>
