<svg width="52" height="50" viewBox="0 0 52 50" fill="none" xmlns="http://www.w3.org/2000/svg">
<path d="M22.4131 4.26794C23.8803 1.29495 28.1197 1.29496 29.5869 4.26794L33.8861 12.979C34.4687 14.1596 35.595 14.9778 36.8978 15.1671L46.511 16.564C49.7919 17.0408 51.102 21.0727 48.7279 23.3868L41.7717 30.1674C40.829 31.0863 40.3988 32.4103 40.6213 33.7079L42.2635 43.2823C42.8239 46.5499 39.3942 49.0417 36.4597 47.499L27.8614 42.9786C26.6961 42.3659 25.3039 42.3659 24.1386 42.9786L15.5403 47.499C12.6058 49.0417 9.17609 46.5499 9.73653 43.2823L11.3787 33.7079C11.6012 32.4103 11.171 31.0863 10.2283 30.1674L3.27211 23.3868C0.898039 21.0727 2.20807 17.0408 5.48896 16.564L15.1021 15.1671C16.405 14.9778 17.5313 14.1596 18.1139 12.979L22.4131 4.26794Z" stroke="black" stroke-width="4"/>
</svg>
