<svg width="57" height="50" viewBox="0 0 57 50" fill="none" xmlns="http://www.w3.org/2000/svg">
<path d="M55 30C55 31.7053 53.7322 33.6696 50.7566 35.3228C47.8488 36.9382 43.6961 38 39 38C34.3039 38 30.1512 36.9382 27.2434 35.3228C24.2678 33.6696 23 31.7053 23 30C23 28.2947 24.2678 26.3304 27.2434 24.6772C30.1512 23.0618 34.3039 22 39 22C43.6961 22 47.8488 23.0618 50.7566 24.6772C53.7322 26.3304 55 28.2947 55 30Z" fill="white" stroke="black" stroke-width="4"/>
<mask id="path-2-inside-1_72_3" fill="white">
<path d="M21 20H57V30H21V20Z"/>
</mask>
<path d="M21 20H57V30H21V20Z" fill="white"/>
<path d="M53 20V30H61V20H53ZM25 30V20H17V30H25Z" fill="black" mask="url(#path-2-inside-1_72_3)"/>
<path d="M55 20C55 21.7053 53.7322 23.6696 50.7566 25.3228C47.8488 26.9382 43.6961 28 39 28C34.3039 28 30.1512 26.9382 27.2434 25.3228C24.2678 23.6696 23 21.7053 23 20C23 18.2947 24.2678 16.3304 27.2434 14.6772C30.1512 13.0618 34.3039 12 39 12C43.6961 12 47.8488 13.0618 50.7566 14.6772C53.7322 16.3304 55 18.2947 55 20Z" fill="white" stroke="black" stroke-width="4"/>
<path d="M34.1905 40C34.1905 41.6999 32.919 43.665 29.9231 45.3206C26.9972 46.9375 22.8193 48 18.0952 48C13.3712 48 9.19324 46.9375 6.26734 45.3206C3.27148 43.665 2 41.6999 2 40C2 38.3001 3.27148 36.335 6.26734 34.6794C9.19324 33.0625 13.3712 32 18.0952 32C22.8193 32 26.9972 33.0625 29.9231 34.6794C32.919 36.335 34.1905 38.3001 34.1905 40Z" fill="white" stroke="black" stroke-width="4"/>
<mask id="path-6-inside-2_72_3" fill="white">
<path d="M0 30H36.1905V40H0V30Z"/>
</mask>
<path d="M0 30H36.1905V40H0V30Z" fill="white"/>
<path d="M32.1905 30V40H40.1905V30H32.1905ZM4 40V30H-4V40H4Z" fill="black" mask="url(#path-6-inside-2_72_3)"/>
<path d="M34.1905 30C34.1905 31.6999 32.919 33.665 29.9231 35.3206C26.9972 36.9375 22.8193 38 18.0952 38C13.3712 38 9.19324 36.9375 6.26734 35.3206C3.27148 33.665 2 31.6999 2 30C2 28.3001 3.27148 26.335 6.26734 24.6794C9.19324 23.0625 13.3712 22 18.0952 22C22.8193 22 26.9972 23.0625 29.9231 24.6794C32.919 26.335 34.1905 28.3001 34.1905 30Z" fill="white" stroke="black" stroke-width="4"/>
<path d="M34.1905 30C34.1905 31.6999 32.919 33.665 29.9231 35.3206C26.9972 36.9375 22.8193 38 18.0952 38C13.3712 38 9.19324 36.9375 6.26734 35.3206C3.27148 33.665 2 31.6999 2 30C2 28.3001 3.27148 26.335 6.26734 24.6794C9.19324 23.0625 13.3712 22 18.0952 22C22.8193 22 26.9972 23.0625 29.9231 24.6794C32.919 26.335 34.1905 28.3001 34.1905 30Z" fill="white" stroke="black" stroke-width="4"/>
<mask id="path-10-inside-3_72_3" fill="white">
<path d="M0 20H36.1905V30H0V20Z"/>
</mask>
<path d="M0 20H36.1905V30H0V20Z" fill="white"/>
<path d="M32.1905 20V30H40.1905V20H32.1905ZM4 30V20H-4V30H4Z" fill="black" mask="url(#path-10-inside-3_72_3)"/>
<path d="M34.1905 20C34.1905 21.6999 32.919 23.665 29.9231 25.3206C26.9972 26.9375 22.8193 28 18.0952 28C13.3712 28 9.19324 26.9375 6.26734 25.3206C3.27148 23.665 2 21.6999 2 20C2 18.3001 3.27148 16.335 6.26734 14.6794C9.19324 13.0625 13.3712 12 18.0952 12C22.8193 12 26.9972 13.0625 29.9231 14.6794C32.919 16.335 34.1905 18.3001 34.1905 20Z" fill="white" stroke="black" stroke-width="4"/>
<path d="M34.1905 20C34.1905 21.6999 32.919 23.665 29.9231 25.3206C26.9972 26.9375 22.8193 28 18.0952 28C13.3712 28 9.19324 26.9375 6.26734 25.3206C3.27148 23.665 2 21.6999 2 20C2 18.3001 3.27148 16.335 6.26734 14.6794C9.19324 13.0625 13.3712 12 18.0952 12C22.8193 12 26.9972 13.0625 29.9231 14.6794C32.919 16.335 34.1905 18.3001 34.1905 20Z" fill="white" stroke="black" stroke-width="4"/>
<mask id="path-14-inside-4_72_3" fill="white">
<path d="M0 10H36.1905V20H0V10Z"/>
</mask>
<path d="M0 10H36.1905V20H0V10Z" fill="white"/>
<path d="M32.1905 10V20H40.1905V10H32.1905ZM4 20V10H-4V20H4Z" fill="black" mask="url(#path-14-inside-4_72_3)"/>
<path d="M34.1905 10C34.1905 11.6999 32.919 13.665 29.9231 15.3206C26.9972 16.9375 22.8193 18 18.0952 18C13.3712 18 9.19324 16.9375 6.26734 15.3206C3.27148 13.665 2 11.6999 2 10C2 8.30013 3.27148 6.33502 6.26734 4.67942C9.19324 3.06248 13.3712 2 18.0952 2C22.8193 2 26.9972 3.06248 29.9231 4.67942C32.919 6.33502 34.1905 8.30013 34.1905 10Z" fill="white" stroke="black" stroke-width="4"/>
</svg>
